# xmcd CD database file
# Copyright (C) 1995 Ti Kan
#
# Track frame offsets:
#	182
#	16175
#	29365
#	44200
#	55072
#	67382
#	79110
#	90437
#	99950
#	114872
#	122877
#	132460
#	143285
#	154642
#	170882
#	181195
#	194965
#	209392
#
# Disc length: 2925 seconds
#
# Revision: 1
# Processed by: cddbd v1.4b41PL1 Copyright (c) Steve Scherf et al.
# Submitted via: xmcd 1.4
#
DISCID=fe0b6b12
DTITLE=Alligator STOMP -- various
DYEAR=1900
DGENRE=
TTITLE0=My Toot Toot -- Rockin'  Sydney
TTITLE1=Back Door -- Queen Ida
TTITLE2=Colinda -- Rocking Dopsie and the Cajun Twisters
TTITLE3=Lacassine Special -- D.L. Menard and the Louisiana Aces
TTITLE4=Eh, Petite Fille -- Clifton Chenier
TTITLE5=Sugar bee -- Cleveland Crochet
TTITLE6=Laissez Faire -- Bruce Daigrepont
TTITLE7=Promised Land -- Johnnie Allan
TTITLE8=Jolie Blon -- Jo-El Sonnier
TTITLE9=You Ain't Nothin' But Fine -- Rockin' Sidney
TTITLE10=Diggy Liggy Lo -- Rusty and Doug
TTITLE11=Uncle Bud -- Boozoo Chavis
TTITLE12=Old Time Zydeco -- Rocking Dopsie
TTITLE13=It's You I Love -- Beausoleil
TTITLE14=Lousiana Blues -- Jo-El Sonnier
TTITLE15=Mal D'Amour -- Queen Ida
TTITLE16=Paper in my Shoe -- Boozoo Chavis
TTITLE17=Zodico Stomp -- Clifton Chenier
EXTD=
EXTT0=
EXTT1=
EXTT2=
EXTT3=
EXTT4=
EXTT5=
EXTT6=
EXTT7=
EXTT8=
EXTT9=
EXTT10=
EXTT11=
EXTT12=
EXTT13=
EXTT14=
EXTT15=
EXTT16=
EXTT17=
PLAYORDER=
